<svg xmlns="http://www.w3.org/2000/svg" xmlns:xlink="http://www.w3.org/1999/xlink" xml:space="preserve" version="1.1" style="shape-rendering:geometricPrecision;text-rendering:geometricPrecision;image-rendering:optimizeQuality;" viewBox="0 0 291 323.75" x="0px" y="0px" fill-rule="evenodd" clip-rule="evenodd"><defs><style type="text/css">
   
    .fil0 {fill:black}
    .fil1 {fill:black;fill-rule:nonzero}
   
  </style></defs><g><path class="fil0" d="M26 132l69 69 32 2 -2 -32 -68 -69c-5,13 -17,26 -31,30z"/><path class="fil0" d="M3 110l15 15c14,-4 27,-16 30,-30l1 -1 -15 -15c-13,-13 -44,17 -31,31z"/><polygon class="fil1" points="125,50 239,50 239,63 125,63 "/><path class="fil0" d="M125 86c38,0 76,0 114,0 0,5 0,9 0,14 -38,0 -76,0 -114,0 0,-5 0,-9 0,-14z"/><path class="fil0" d="M125 123c38,0 76,0 114,0 0,4 0,8 0,13 -38,0 -76,0 -114,0 0,-5 0,-9 0,-13z"/><path class="fil0" d="M130 159l109 0c0,4 0,9 0,13l-102 0 0 -7 -7 -6z"/><polygon class="fil1" points="139,195 239,195 239,208 139,208 "/><path class="fil0" d="M79 0l154 0 58 60 0 92c0,36 0,71 0,107l-212 0 0 -57 11 10 6 1 0 29 178 0c0,-30 0,-60 0,-90l0 -85 -48 -50 -130 0 0 108 -17 -17 0 -108z"/></g><text x="0" y="274" fill="#000000" font-size="5px" font-weight="bold" font-family="'Helvetica Neue', Helvetica, Arial-Unicode, Arial, Sans-serif">Created by Sandhi Priyasmoro</text><text x="0" y="279" fill="#000000" font-size="5px" font-weight="bold" font-family="'Helvetica Neue', Helvetica, Arial-Unicode, Arial, Sans-serif">from the Noun Project</text></svg>